<svg viewBox="0 0 1758 1168.8" xmlns="http://www.w3.org/2000/svg"><g fill="#fff"><path d="m875.68 309.87 43.22 22.72-8.26-48.12 34.96-34.08-48.31-7.02-21.61-43.78-21.61 43.78-48.31 7.02 34.96 34.08-8.25 48.12z"/><path d="m741.84 319.85 24.24 12.74-4.63-26.99 19.61-19.12-27.1-3.94-12.12-24.56-12.12 24.56-27.11 3.94 19.61 19.12-4.62 26.99z"/><path d="m641.99 323.42 17.45 9.17-3.33-19.43 14.12-13.76-19.51-2.84-8.73-17.68-8.73 17.68-19.51 2.84 14.12 13.76-3.33 19.43z"/><path d="m1116.01 323.42 17.45 9.17-3.33-19.43 14.12-13.76-19.51-2.84-8.73-17.68-8.73 17.68-19.51 2.84 14.12 13.76-3.33 19.43z"/><path d="m1012.1 319.85 24.24 12.74-4.63-26.99 19.61-19.12-27.1-3.94-12.12-24.56-12.13 24.56-27.1 3.94 19.61 19.12-4.63 26.99z"/><path d="m1211.27 428.84c.16.03.22.05.27.05 1.9 0 3.8 0 5.7.02.39 0 .46-.22.54-.5 2.06-6.97 4.14-13.94 6.17-20.92.7-2.42 1.28-4.87 1.91-7.3.04-.14.02-.33.26-.33.03.06.07.11.07.16-.05 1.02-.13 2.03-.14 3.05-.05 3.38-.09 6.76-.1 10.14-.02 5.1-.02 10.2-.02 15.3 0 .13.04.26.06.38h7.07v-34.21h-10.64c-2.62 8.3-5.37 16.53-7.47 24.96-1.95-8.41-4.27-16.7-6.69-24.97h-11.01c-.13.8-.09 33.78.04 34.19h6.72c0-2.47 0-4.88 0-7.3s.01-4.84-.01-7.26c-.02-2.44-.06-4.88-.13-7.31-.07-2.4-.18-4.79-.27-7.19.05 0 .11-.02.16-.02 2.27 9.75 4.96 19.39 7.52 29.08zm-337.3.06v-34.23h-6.71c0 .17-.02.31-.02.45.03 6.38.04 12.76.09 19.14.01 1.6.14 3.19.21 4.79v.65c-.13-.09-.18-.18-.23-.27-.85-1.65-1.65-3.33-2.55-4.96-3.56-6.46-7.15-12.9-10.72-19.36-.21-.37-.44-.49-.85-.49-2.7.01-5.4 0-8.1 0-.16 0-.31.02-.5.03v34.2h6.77c0-.18 0-.32 0-.45 0-3.8 0-7.6 0-11.4 0-4.24-.04-8.48-.23-12.71-.03-.59 0-1.18 0-1.85.16.32.29.6.43.87 1.65 3.19 3.27 6.41 4.97 9.58 2.79 5.2 5.63 10.36 8.44 15.55.17.31.35.46.74.46 2.6-.02 5.2 0 7.8 0h.47zm-255.67-24.85c0-.16.02-.26 0-.35-.09-.49-.17-.99-.3-1.47-.95-3.55-3.25-5.84-6.64-7.1-2.62-.97-5.34-1.13-8.1-.92-1.46.11-2.89.39-4.27.89-2.25.83-4.11 2.15-5.29 4.27-1.09 1.96-1.36 4.06-1.09 6.27.28 2.28 1.38 4.06 3.22 5.39.52.37 1.07.7 1.63 1.01 1.44.79 2.99 1.35 4.57 1.78 1.65.46 3.32.87 4.98 1.33.96.27 1.89.64 2.76 1.16.82.49 1.47 1.14 1.71 2.08.59 2.3-.18 4.39-2.75 5.09-.1.03-.19.05-.29.07-1.54.34-3.1.34-4.65.05-2.48-.45-4.17-1.83-4.86-4.31-.04-.15-.12-.29-.16-.4h-7.42c.04.26.07.48.11.69.56 2.99 1.97 5.47 4.48 7.25 1.9 1.35 4.06 2.06 6.35 2.33 1.33.15 2.67.18 4.01.18 2.4 0 4.73-.42 6.95-1.38 1.74-.76 3.23-1.85 4.31-3.43 1.75-2.55 2.03-5.37 1.42-8.32-.43-2.06-1.65-3.61-3.31-4.83-1.23-.91-2.61-1.55-4.03-2.1-1.94-.75-3.97-1.21-5.99-1.71-1.32-.33-2.63-.69-3.82-1.37-1.73-1-2.25-3.04-1.23-4.76.5-.85 1.3-1.29 2.21-1.53 1.38-.36 2.77-.34 4.16-.06 2.12.43 3.35 1.74 3.81 3.82.03.11.06.22.1.36h7.44zm-34.17 0c-.19-1.87-.74-3.51-1.75-5-1.55-2.27-3.77-3.59-6.38-4.29-2.58-.7-5.21-.77-7.85-.45-1.55.19-3.06.58-4.48 1.28-1.89.92-3.39 2.24-4.35 4.14-.88 1.75-1.12 3.61-.95 5.54.17 1.99.94 3.7 2.42 5.07.86.8 1.84 1.41 2.88 1.93 1.91.95 3.94 1.54 5.99 2.06 1.3.33 2.59.68 3.87 1.07.84.25 1.65.62 2.37 1.14.67.48 1.18 1.07 1.4 1.89.55 2.01 0 4.46-3.02 5.13-1.71.38-3.42.37-5.11-.03-2.24-.53-3.75-1.88-4.39-4.13-.15-.51-.15-.52-.7-.52-2.16 0-4.32 0-6.48 0-.14 0-.27.03-.43.05.03.22.05.42.09.61.67 3.67 2.57 6.46 5.92 8.19 1.54.8 3.19 1.26 4.91 1.48 2.19.28 4.39.27 6.58-.01 1.88-.24 3.68-.75 5.35-1.67 2.35-1.3 3.97-3.19 4.69-5.8.46-1.67.47-3.36.18-5.05s-1.07-3.13-2.29-4.32c-.76-.75-1.64-1.34-2.57-1.85-1.78-.98-3.69-1.62-5.64-2.15-1.54-.42-3.09-.81-4.63-1.23-.85-.23-1.66-.57-2.41-1.06-.68-.44-1.16-1.03-1.33-1.85-.43-2.1.58-3.73 2.65-4.28 1.24-.33 2.5-.31 3.75-.12 2.25.35 3.62 1.62 4.17 3.83.04.15.1.29.14.42h7.42zm105.2 14.27c-.25.58-.45 1.1-.7 1.6-.77 1.53-1.93 2.63-3.56 3.21-.86.31-1.74.43-2.65.44-2.87.03-5.17-1.03-6.77-3.47-.66-1.01-1.11-2.13-1.41-3.29-.69-2.65-.78-5.33-.43-8.03.18-1.43.52-2.83 1.14-4.14.86-1.83 2.11-3.29 4.03-4.09 1.47-.62 3.01-.66 4.54-.47 2.73.34 4.59 1.83 5.53 4.43.09.24.17.49.25.72.79.13 6.94.09 7.37-.05 0-.07.01-.15 0-.23-.98-5.1-3.93-8.47-8.88-10.03-2.79-.88-5.66-.99-8.54-.53-5.2.83-8.96 3.63-11.29 8.33-1.11 2.23-1.68 4.61-1.9 7.08-.26 2.92-.04 5.79.75 8.61.59 2.08 1.49 4.02 2.86 5.7 1.95 2.4 4.46 3.98 7.47 4.73 2.96.74 5.94.74 8.92.17 2.01-.39 3.87-1.15 5.52-2.36 2.72-1.99 4.31-4.72 5.09-7.96.03-.11 0-.22 0-.36h-7.35zm459.16-13.07c-.23-1.73-.77-3.26-1.61-4.69-1.69-2.89-4.2-4.72-7.37-5.67-2.95-.88-5.94-.97-8.96-.43-2.15.38-4.15 1.18-5.94 2.44-2.53 1.78-4.27 4.17-5.41 7.03-1.14 2.85-1.53 5.82-1.44 8.87.07 2.46.46 4.85 1.35 7.15 1.83 4.69 5.15 7.72 10.05 8.94 2.62.65 5.27.64 7.92.26 2.02-.29 3.91-.97 5.64-2.08 3.1-1.98 4.87-4.88 5.73-8.4.03-.11 0-.22 0-.38h-.7c-1.86 0-3.72 0-5.58 0-.36 0-.78-.07-1.05.09-.24.15-.3.58-.43.89-.89 2.13-2.4 3.57-4.68 4.09-1.3.3-2.62.29-3.93 0-2.45-.53-4.1-2.05-5.21-4.23-.52-1.02-.86-2.11-1.08-3.23-.49-2.39-.51-4.81-.21-7.22.19-1.53.59-3.02 1.3-4.4.97-1.89 2.37-3.3 4.44-3.96 1.27-.4 2.57-.42 3.86-.27 2.75.32 4.65 1.77 5.61 4.4.1.26.19.52.29.8h7.38zm-179.93-4.54v28.14h7.46v-28.15h10.32v-6.05h-28.16v6.06h10.37zm-188.84-6.04c-.95-.12-27.74-.07-28.18.05v6h10.36v4.08 16.02 4.02c0 1.33-.04 2.66.04 4.01h7.43v-11.26c0-.94 0-1.88 0-2.82s0-1.88 0-2.82 0-1.88 0-2.82v-2.76c0-.94 0-1.88 0-2.82 0-.93 0-1.86.01-2.85h10.34v-6.02zm230.29 34.19v-28.16h10.28v-6.03c-1.13-.13-27.73-.07-28.15.06v6h10.37v28.14h7.5zm-94.34 0v-28.15h10.3v-6.03c-.93-.11-27.71-.07-28.13.04-.1.91-.07 5.55.07 6.03h10.32v14.09 7.02 7h7.45zm-129.14-34.21v34.21h7.39c.13-.87.09-33.78-.04-34.21h-7.34zm-81.84 0v34.21h7.39c.13-.91.09-33.78-.05-34.21zm191.59 24.58v-6.14c-.7-.12-13.37-.09-13.81.02v6.12zm207.99 9.64h7.58c.11-.91.06-8.24-.05-8.63h-7.53z"/><path d="m1211.27 428.84c-2.56-9.68-5.25-19.32-7.52-29.08-.05 0-.11.02-.16.02.09 2.4.21 4.79.27 7.19.07 2.44.11 4.88.13 7.31.02 2.42 0 4.84.01 7.26v7.3h-6.72c-.13-.41-.16-33.39-.04-34.19h11.01c2.42 8.26 4.74 16.56 6.69 24.97 2.1-8.44 4.85-16.66 7.47-24.96h10.64v34.21h-7.07c-.02-.12-.06-.25-.06-.38 0-5.1 0-10.2.02-15.3.01-3.38.06-6.76.1-10.14.01-1.02.1-2.03.14-3.05 0-.05-.04-.1-.07-.16-.24 0-.22.19-.26.33-.63 2.44-1.21 4.89-1.91 7.3-2.03 6.98-4.11 13.95-6.17 20.92-.08.28-.15.51-.54.5-1.9-.02-3.8-.02-5.7-.02-.06 0-.12-.02-.27-.05z"/><path d="m873.97 428.9c-.19 0-.33 0-.47 0-2.6 0-5.2-.01-7.8 0-.39 0-.57-.15-.74-.46-2.81-5.18-5.65-10.35-8.44-15.55-1.7-3.17-3.32-6.38-4.97-9.58-.14-.27-.27-.55-.43-.87 0 .67-.02 1.26 0 1.85.2 4.24.23 8.47.23 12.71v11.4.45h-6.77v-34.2c.18-.01.34-.03.5-.03h8.1c.41 0 .64.12.85.49 3.57 6.46 7.16 12.9 10.72 19.36.9 1.63 1.7 3.3 2.55 4.96.05.09.09.18.23.27 0-.22 0-.43 0-.65-.07-1.6-.2-3.19-.21-4.79-.05-6.38-.07-12.76-.09-19.14 0-.14.01-.27.02-.45h6.71v34.23z"/><path d="m1188.53 411.04c-.05 3.95-.68 7.25-2.34 10.28-1.97 3.61-4.94 6.03-8.85 7.27-2.95.93-5.98 1.06-9.02.56-3.03-.49-5.73-1.74-7.97-3.88-2.09-2-3.48-4.43-4.24-7.2-1.35-4.91-1.29-9.79.78-14.5 2.3-5.24 6.4-8.25 12.03-9.18 2.96-.49 5.9-.31 8.78.56 3.29 1 5.85 2.98 7.78 5.8 1.48 2.16 2.34 4.59 2.72 7.17.18 1.2.26 2.42.33 3.11zm-25.61.74c0 2.05.29 4.3 1.22 6.43 1.03 2.35 2.67 4.05 5.18 4.82 1.19.36 2.41.39 3.63.29 2.12-.17 3.92-1.02 5.31-2.67.91-1.09 1.52-2.35 1.9-3.71.71-2.5.83-5.04.54-7.61-.14-1.28-.42-2.52-.9-3.72-.87-2.19-2.27-3.88-4.5-4.8-.94-.38-1.92-.56-2.92-.6-1.98-.09-3.86.24-5.53 1.4-1.47 1.02-2.37 2.47-3 4.1-.72 1.87-.91 3.84-.93 6.07z"/><path d="m1040.88 429.44c-2.82-.03-5.4-.47-7.82-1.65-3.33-1.63-5.63-4.21-7.1-7.58-1.02-2.34-1.49-4.8-1.59-7.34-.11-2.89.18-5.72 1.24-8.42 2.24-5.68 6.39-9.05 12.42-10.05 2.8-.47 5.58-.35 8.31.44 4.78 1.39 8.03 4.47 9.87 9.06.82 2.04 1.2 4.17 1.33 6.37.16 2.74-.13 5.43-.98 8.05-.76 2.35-1.95 4.47-3.65 6.27-2 2.12-4.45 3.49-7.26 4.24-1.61.43-3.26.57-4.78.61zm9.06-17.63c-.08-1-.12-1.99-.24-2.98-.2-1.66-.7-3.24-1.55-4.69-1.13-1.93-2.78-3.17-4.96-3.68-1.24-.29-2.49-.34-3.75-.16-2.32.33-4.18 1.39-5.49 3.37-1.01 1.54-1.55 3.25-1.75 5.05-.14 1.27-.14 2.55-.15 3.83-.02 2.05.39 4.02 1.24 5.88 1.04 2.27 2.69 3.9 5.13 4.63 1.23.37 2.49.39 3.75.27 2.31-.23 4.21-1.24 5.54-3.17.46-.67.84-1.41 1.15-2.16.8-1.97 1.06-4.05 1.08-6.17z"/><path d="m819.01 429.51c-2.55-.1-5.03-.5-7.35-1.57-3.53-1.63-5.96-4.3-7.46-7.85-1.4-3.33-1.79-6.82-1.48-10.4.18-2.09.64-4.11 1.49-6.02 2.22-5 6.04-8.05 11.4-9.14 3.31-.67 6.6-.53 9.82.58 4 1.37 6.86 4.02 8.64 7.82 1.55 3.3 1.99 6.8 1.73 10.41-.14 1.97-.51 3.88-1.22 5.72-2.14 5.54-6.09 8.93-11.94 10.02-1.19.22-2.42.29-3.63.42zm-8.76-17.94c.06.88.09 1.76.19 2.63.2 1.74.68 3.4 1.53 4.95 1.14 2.08 2.86 3.4 5.15 3.99 1.08.28 2.19.27 3.28.17 2.31-.21 4.19-1.22 5.57-3.11.61-.83 1.05-1.74 1.37-2.72.81-2.41.96-4.89.79-7.4-.14-2-.61-3.9-1.55-5.68-.97-1.84-2.43-3.11-4.4-3.75-1.63-.53-3.29-.58-4.97-.27-1.52.28-2.83.95-3.93 2.03-.99.97-1.65 2.15-2.11 3.45-.66 1.85-.88 3.77-.91 5.72z"/><path d="m1081.57 429.45c-3.09-.05-5.5-.41-7.79-1.44-3.73-1.68-6.26-4.5-7.76-8.26-1.27-3.18-1.63-6.49-1.35-9.89.19-2.29.71-4.5 1.69-6.58 1.96-4.15 5.09-6.98 9.49-8.31 3.94-1.19 7.9-1.17 11.79.22 4.58 1.64 7.53 4.93 9.1 9.47 1 2.89 1.26 5.89 1.01 8.93-.19 2.33-.71 4.58-1.71 6.7-2.27 4.83-6.05 7.75-11.27 8.77-1.25.24-2.54.31-3.21.38zm8.61-17.66c-.05-.84-.06-1.68-.15-2.51-.18-1.7-.62-3.34-1.44-4.85-1.12-2.06-2.8-3.41-5.09-3.97-1.26-.31-2.53-.35-3.81-.17-2.3.32-4.14 1.38-5.45 3.33-.72 1.08-1.18 2.26-1.49 3.51-.58 2.4-.61 4.83-.32 7.27.2 1.61.64 3.17 1.43 4.61 1.15 2.11 2.83 3.55 5.19 4.11 1.32.32 2.66.3 3.99.09 1.88-.3 3.42-1.2 4.62-2.66.75-.91 1.27-1.94 1.64-3.04.63-1.86.88-3.77.87-5.73z"/><path d="m625.72 411.91c-.06-3.02.44-5.85 1.69-8.53 2.36-5.08 6.36-8.04 11.86-8.97 2.71-.46 5.42-.39 8.09.34 5.2 1.41 8.64 4.74 10.44 9.78.95 2.65 1.24 5.4 1.12 8.2-.11 2.58-.63 5.08-1.71 7.43-2.24 4.86-6 7.84-11.25 8.89-2.96.59-5.93.54-8.85-.27-4.85-1.34-8.12-4.45-9.99-9.08-.87-2.14-1.46-4.96-1.38-7.79zm7.6 0c.06.71.11 1.74.26 2.74.24 1.69.74 3.31 1.63 4.79 1.17 1.92 2.82 3.21 5.02 3.69 1.75.38 3.5.33 5.21-.26 1.46-.5 2.65-1.38 3.56-2.63.66-.91 1.15-1.92 1.49-2.99.8-2.5.89-5.07.67-7.66-.13-1.58-.49-3.12-1.16-4.57-1.08-2.35-2.82-3.94-5.37-4.57-1.28-.32-2.57-.36-3.87-.18-2.09.29-3.83 1.21-5.13 2.91-.82 1.08-1.35 2.3-1.71 3.61-.43 1.57-.54 3.19-.61 5.11z"/><path d="m618.29 404.05h-7.44c-.04-.14-.07-.25-.1-.36-.46-2.08-1.69-3.39-3.81-3.82-1.39-.28-2.78-.3-4.16.06-.91.24-1.7.69-2.21 1.53-1.02 1.72-.5 3.76 1.23 4.76 1.19.69 2.5 1.05 3.82 1.37 2.02.5 4.04.96 5.99 1.71 1.42.55 2.8 1.19 4.03 2.1 1.67 1.22 2.89 2.77 3.31 4.83.61 2.95.33 5.77-1.42 8.32-1.08 1.58-2.57 2.67-4.31 3.43-2.21.97-4.55 1.38-6.95 1.38-1.34 0-2.68-.03-4.01-.18-2.29-.27-4.45-.98-6.35-2.33-2.51-1.78-3.92-4.26-4.48-7.25-.04-.21-.07-.43-.11-.69h7.42c.05.11.12.25.16.4.7 2.48 2.38 3.85 4.86 4.31 1.55.28 3.1.29 4.65-.05.1-.02.19-.05.29-.07 2.56-.7 3.34-2.79 2.75-5.09-.24-.94-.89-1.59-1.71-2.08-.86-.52-1.79-.89-2.76-1.16-1.66-.46-3.32-.87-4.98-1.33-1.58-.44-3.12-.99-4.57-1.78-.56-.31-1.11-.64-1.63-1.01-1.84-1.33-2.94-3.11-3.22-5.39-.27-2.2 0-4.31 1.09-6.27 1.18-2.13 3.05-3.45 5.29-4.27 1.38-.51 2.81-.78 4.27-.89 2.76-.21 5.48-.05 8.1.92 3.39 1.25 5.69 3.55 6.64 7.1.13.48.2.98.3 1.47.02.09 0 .19 0 .35z"/><path d="m584.13 404.05h-7.42c-.04-.13-.1-.27-.14-.42-.55-2.21-1.92-3.48-4.17-3.83-1.25-.19-2.51-.21-3.75.12-2.08.55-3.08 2.18-2.65 4.28.17.82.65 1.4 1.33 1.85.74.48 1.55.82 2.41 1.06 1.54.42 3.09.81 4.63 1.23 1.95.53 3.86 1.18 5.64 2.15.93.51 1.8 1.11 2.57 1.85 1.23 1.2 2 2.63 2.29 4.32.29 1.7.28 3.39-.18 5.05-.72 2.61-2.34 4.51-4.69 5.8-1.67.92-3.47 1.43-5.35 1.67-2.19.28-4.39.29-6.58.01-1.72-.22-3.37-.68-4.91-1.48-3.35-1.73-5.24-4.52-5.92-8.19-.04-.19-.05-.39-.09-.61.16-.02.3-.05.43-.05h6.48c.55 0 .55 0 .7.52.65 2.25 2.15 3.61 4.39 4.13 1.69.4 3.41.41 5.11.03 3.02-.67 3.57-3.12 3.02-5.13-.22-.81-.73-1.41-1.4-1.89-.72-.51-1.53-.88-2.37-1.14-1.28-.38-2.57-.74-3.87-1.07-2.06-.52-4.09-1.11-5.99-2.06-1.04-.52-2.02-1.13-2.88-1.93-1.48-1.37-2.25-3.08-2.42-5.07-.16-1.93.08-3.79.95-5.54.95-1.9 2.46-3.22 4.35-4.14 1.42-.69 2.92-1.09 4.48-1.28 2.64-.32 5.27-.24 7.85.45 2.61.7 4.82 2.02 6.38 4.29 1.01 1.48 1.56 3.13 1.75 5z"/><path d="m937.24 394.65h9.29c4.04 11.37 8.07 22.77 12.13 34.22h-7.8c-.93-2.61-1.87-5.23-2.82-7.87-.22-.01-.4-.03-.58-.03-3.78 0-7.56 0-11.34 0-.56 0-.56 0-.75.55-.77 2.27-1.54 4.54-2.3 6.81-.2.59-.2.58-.84.58-1.98-.01-3.96-.01-5.94-.02-.2 0-.39 0-.59 0 .01-.52 10.65-32.04 11.54-34.24zm9.15 20.24c-1.6-4.91-3.18-9.78-4.76-14.64-1.48 4.85-2.97 9.73-4.47 14.64h9.24z"/><path d="m739.88 394.65c4.03 11.38 8.06 22.76 12.11 34.19-.14.02-.25.05-.36.05-2.3 0-4.6 0-6.9 0-.53 0-.53 0-.72-.52-.81-2.28-1.62-4.55-2.43-6.83-.06-.17-.12-.33-.2-.53h-12.47c-.63 1.86-1.26 3.69-1.88 5.52-.23.66-.46 1.32-.67 1.99-.09.27-.23.39-.52.39-2.22-.01-4.44-.02-6.66-.03-.06 0-.11-.03-.23-.07 3.87-11.38 7.73-22.76 11.6-34.15h9.33zm-9.38 20.24h9.24c-1.6-4.91-3.19-9.78-4.77-14.64-1.48 4.84-2.96 9.7-4.47 14.64z"/><path d="m544.6 428.88c-.94-2.64-1.87-5.24-2.81-7.87h-12.45c-.04.09-.09.15-.11.23-.8 2.37-1.6 4.73-2.39 7.1-.19.56-.19.56-.79.56-2.08 0-4.16 0-6.24-.01-.14 0-.27-.02-.46-.03 3.88-11.42 7.74-22.8 11.61-34.2h9.33c4.04 11.4 8.07 22.78 12.12 34.22zm-9.25-28.72c-.07.22-.12.35-.16.48-.43 1.52-.84 3.04-1.3 4.55-.91 2.96-1.84 5.91-2.76 8.87-.08.26-.13.52-.2.79.9.12 8.79.08 9.2-.04-1.58-4.85-3.16-9.7-4.78-14.66z"/><path d="m689.32 418.32h7.35c0 .14.02.25 0 .36-.78 3.24-2.37 5.97-5.09 7.96-1.66 1.21-3.52 1.97-5.52 2.36-2.98.57-5.96.57-8.92-.17-3.01-.75-5.52-2.32-7.47-4.73-1.37-1.68-2.27-3.62-2.86-5.7-.8-2.82-1.01-5.7-.75-8.61.22-2.47.79-4.85 1.9-7.08 2.34-4.7 6.1-7.5 11.29-8.33 2.88-.46 5.75-.35 8.54.53 4.95 1.56 7.9 4.94 8.88 10.03.01.07 0 .15 0 .23-.43.14-6.59.18-7.37.05-.08-.23-.17-.48-.25-.72-.94-2.6-2.8-4.09-5.53-4.43-1.54-.19-3.07-.14-4.54.47-1.91.8-3.16 2.26-4.03 4.09-.62 1.31-.96 2.71-1.14 4.14-.34 2.7-.26 5.39.43 8.03.31 1.17.75 2.28 1.41 3.29 1.6 2.44 3.9 3.5 6.77 3.47.91-.01 1.79-.13 2.65-.44 1.63-.59 2.79-1.68 3.56-3.21.25-.5.45-1.02.7-1.6z"/><path d="m1148.48 405.26h-7.38c-.1-.27-.19-.53-.29-.8-.96-2.63-2.86-4.08-5.61-4.4-1.29-.15-2.6-.13-3.86.27-2.07.66-3.47 2.07-4.44 3.96-.71 1.39-1.11 2.87-1.3 4.4-.3 2.41-.28 4.83.21 7.22.23 1.12.57 2.21 1.08 3.23 1.11 2.18 2.76 3.7 5.21 4.23 1.31.28 2.63.29 3.93 0 2.28-.52 3.79-1.96 4.68-4.09.13-.31.19-.74.43-.89.26-.17.69-.09 1.05-.09h5.58.7c0 .16.02.28 0 .38-.86 3.51-2.63 6.41-5.73 8.4-1.73 1.1-3.62 1.79-5.64 2.08-2.65.38-5.31.39-7.92-.26-4.91-1.22-8.23-4.25-10.05-8.94-.9-2.3-1.28-4.69-1.35-7.15-.09-3.05.31-6.02 1.44-8.87 1.14-2.85 2.88-5.25 5.41-7.03 1.8-1.26 3.79-2.05 5.94-2.44 3.02-.54 6.02-.45 8.96.43 3.17.95 5.69 2.78 7.37 5.67.83 1.43 1.37 2.96 1.61 4.69z"/><path d="m968.55 400.72h-10.37v-6.06h28.16v6.05h-10.32v28.15h-7.46v-28.14z"/><path d="m779.71 394.68v6.02h-10.34c-.02.99-.01 1.92-.01 2.85v2.82 2.76 2.82 2.82 2.82 11.26h-7.43c-.08-1.35-.03-2.68-.04-4.01 0-1.34 0-2.68 0-4.02v-16.02c0-1.34 0-2.67 0-4.08h-10.36v-6c.45-.12 27.24-.16 28.18-.05z"/><path d="m1010 428.87h-7.5v-28.14h-10.37v-6c.42-.13 27.02-.18 28.15-.06v6.03h-10.28v28.16z"/><path d="m915.67 428.86h-7.45c0-2.34 0-4.67 0-7 0-2.34 0-4.68 0-7.02v-14.09h-10.32c-.14-.48-.17-5.11-.07-6.03.42-.11 27.21-.15 28.13-.04v6.03h-10.3v28.15z"/><path d="m786.53 394.65h7.34c.13.43.17 33.34.04 34.21h-7.39v-34.21z"/><path d="m704.69 394.65h7.34c.13.43.18 33.3.05 34.21h-7.39z"/><path d="m896.28 419.23h-13.81v-6.12c.44-.12 13.11-.14 13.81-.02z"/><path d="m1104.26 428.87v-8.63h7.53c.11.4.16 7.72.05 8.63z"/><path d="m1508.59 575.83c-16.3-31.68-34.32-62.29-51.44-93.34h-34.38v127.98c3.01.51 23.48.38 25.13-.13 0-16.37 0-32.74 0-49.1 0-16.37-.18-32.74-.85-49.14.32.21.5.45.63.71 4.27 8.4 8.36 16.89 12.82 25.18 12.71 23.63 25.58 47.16 38.34 70.76.77 1.43 1.59 2.06 3.3 2.04 9.52-.09 19.03-.04 28.55-.05.61 0 1.22-.11 1.85-.17v-128.06h-24.99c-.05.72-.12 1.28-.12 1.83.05 22.29.09 44.57.17 66.86.01 3.67.15 7.34.31 11.01.19 4.54.46 9.07.69 13.61zm-1034.62-2.76c1.7 11.95 6.54 21.79 16.02 29.04 5.88 4.49 12.6 7.17 19.8 8.71 9.96 2.13 19.99 2.19 30.04.84 6.12-.82 12.06-2.4 17.65-5.12 8.35-4.06 14.77-10.02 18.33-18.74 2.75-6.75 3.21-13.76 2.37-20.94-1.02-8.73-5.04-15.76-12.05-20.97-2.87-2.13-5.98-4-9.18-5.61-8.25-4.16-17.14-6.5-26.09-8.61-5.52-1.3-11-2.74-16.17-5.17-5.52-2.59-8.33-6.71-7.74-12.97.4-4.2 2.21-7.49 5.9-9.57 1.51-.85 3.19-1.52 4.87-1.92 5.21-1.24 10.48-1.12 15.67.15 6.98 1.72 11.43 6.09 13.17 13.12.19.76.42 1.5.63 2.25h27.87c0-.49.04-.81 0-1.12-2.14-15.22-10.27-25.83-24.53-31.68-6.35-2.61-13.03-3.71-19.85-4.11-8.69-.5-17.26.1-25.61 2.67-7.81 2.4-14.7 6.34-19.68 12.98-7.11 9.48-8.32 20.17-5.79 31.42 1.66 7.4 6.33 12.77 12.47 16.96 6.2 4.24 13.1 6.98 20.26 9.04 6.06 1.75 12.21 3.18 18.29 4.85 4.4 1.21 8.7 2.69 12.62 5.1 4 2.46 6.4 5.93 6.82 10.66.65 7.27-2.27 13.05-9.57 15.49-1.06.35-2.13.68-3.22.9-6.53 1.33-13.05 1.15-19.47-.63-7.38-2.04-12.39-6.7-14.85-14.01-.33-.97-.62-1.96-.95-3.02h-28.01zm-128.09 0c.3 1.7.52 3.27.87 4.8 2 8.81 6.09 16.42 12.95 22.43 6.35 5.56 13.86 8.75 22.03 10.52 8.67 1.88 17.44 2.1 26.23 1.29 7.03-.65 13.87-2.17 20.37-5.07 21.67-9.68 25.09-30.4 20.38-46.49-2.26-7.74-7.67-13.13-14.38-17.31-7.82-4.86-16.46-7.68-25.28-10.05-5.94-1.59-11.89-3.13-17.79-4.83-3-.87-5.82-2.2-8.31-4.15-1.96-1.54-3.33-3.47-3.8-5.92-1.26-6.64.75-13.15 8.66-15.73 6.09-1.99 12.29-1.78 18.42-.09 6.2 1.71 10.17 5.77 12 11.92.31 1.05.58 2.12.86 3.12 3.46.47 26.15.32 27.88-.18 0-.29.04-.61 0-.92-2.04-14.39-9.48-24.83-22.8-30.9-6.78-3.09-13.98-4.39-21.38-4.83-8.2-.49-16.29.03-24.23 2.19-7.14 1.94-13.59 5.19-18.79 10.55-6.44 6.65-9.17 14.79-9.43 23.92-.36 12.96 5.08 22.6 16.3 29.06 5.01 2.88 10.29 5.16 15.82 6.78 6.05 1.77 12.19 3.24 18.28 4.89 4.71 1.27 9.33 2.77 13.64 5.13 8.08 4.42 8.67 12.18 6.94 18.05-1.45 4.91-5.16 7.59-9.86 8.91-7.41 2.08-14.87 1.94-22.24-.22-7.58-2.21-12.41-7.26-14.66-14.8-.2-.68-.42-1.35-.64-2.06h-28.03zm522.73-51.05c-.05-.51-.09-.9-.13-1.29-.06-.48-.1-.96-.21-1.42-3.94-17.77-14.47-29.73-31.76-35.53-11.29-3.79-22.89-4.14-34.57-2.16-9.22 1.56-17.62 5.08-25.01 10.88-10.31 8.1-16.64 18.8-20.28 31.22-2.86 9.76-3.6 19.75-3 29.86.48 8.1 1.97 16.01 4.94 23.58 6.63 16.95 18.5 28.32 36.24 33.05 12.02 3.21 24.21 3.27 36.29.25 20.24-5.06 32.5-18.06 37.45-38.16.09-.35.08-.73.13-1.12h-27.85c-.37.95-.69 1.77-1.01 2.58-3.81 9.69-10.68 15.53-21.19 16.66-9.25 1-17.69-.94-24.57-7.57-4.66-4.5-7.4-10.16-9.19-16.31-2.78-9.57-3.17-19.35-2.21-29.19.67-6.87 2.29-13.54 5.6-19.68 3.76-6.99 9.21-12.02 16.99-14.17 5.57-1.54 11.22-1.49 16.85-.24 8.97 2 14.73 7.57 17.86 16.05.33.89.6 1.79.91 2.71zm205.41-16.7h38.91v75.37c0 4.95-.03 9.91 0 14.86.04 5-.19 10 .15 15.02h27.69v-105.32h38.69v-22.63c-2.79-.52-103.81-.39-105.45.12v22.56zm-147.78 105.3c.53-6.15.28-126.42-.23-128.13h-27.29v128.13zm279-128.17v128.13h27.67v-128.13z"/><path d="m1508.59 575.83c-.23-4.54-.5-9.07-.69-13.61-.15-3.67-.29-7.34-.31-11.01-.08-22.29-.12-44.57-.17-66.86 0-.55.07-1.11.12-1.83h24.99v128.06c-.62.06-1.23.17-1.85.17-9.52.01-19.03-.04-28.55.05-1.71.02-2.52-.61-3.3-2.04-12.76-23.6-25.63-47.14-38.34-70.76-4.46-8.29-8.56-16.78-12.82-25.18-.13-.26-.31-.5-.63-.71.67 16.39.85 32.76.85 49.14v49.1c-1.65.51-22.11.63-25.13.13v-127.98h34.38c17.12 31.05 35.13 61.66 51.44 93.34z"/><path d="m1265.35 544.59c.14-12.68 2.53-24.96 8.94-36.21 8.83-15.52 22.23-24.83 39.63-28.32 11.94-2.39 23.88-2.08 35.54 1.66 18.1 5.8 29.94 18.08 36.27 35.81 3.23 9.05 4.39 18.45 4.25 28.03-.15 9.83-1.78 19.39-5.63 28.48-8.34 19.67-23 31.6-44.07 35.46-11.49 2.11-22.95 1.73-34.15-1.76-17.81-5.56-29.47-17.59-35.99-34.84-3.43-9.07-4.69-18.53-4.8-28.31zm95.95-.88c-.13-1.93-.23-4.97-.56-7.98-.63-5.66-1.9-11.17-4.33-16.36-2.96-6.33-7.28-11.42-13.6-14.64-5.34-2.72-11.06-3.57-16.98-3.34-13.03.5-22.2 6.69-27.4 18.67-2.77 6.39-3.84 13.16-4.18 20.05-.42 8.6.34 17.07 3.19 25.27 1.94 5.58 4.81 10.58 9.12 14.73 10.06 9.7 26.47 9.54 36.13 4.73 6.93-3.45 11.39-9.12 14.31-16.13 3.19-7.65 4.11-15.71 4.3-25z"/><path d="m602.58 547.27c.16-13.15 2.42-25.21 8.56-36.32 8.82-15.96 22.39-25.51 40.17-29.05 11.87-2.36 23.72-2.02 35.31 1.66 17.1 5.42 28.78 16.75 35.4 33.29 4.59 11.48 5.88 23.47 4.98 35.74-.72 9.82-3.01 19.23-7.55 28.02-8.71 16.88-22.53 27.04-41.12 30.64-11.14 2.16-22.29 1.94-33.25-1.13-17.66-4.95-29.73-16.24-36.78-33.03-3.43-8.19-5.07-16.78-5.54-25.62-.08-1.59-.15-3.19-.2-4.19zm28.82-3.43c-.08 7.8.62 15.01 2.81 22.01 1.86 5.95 4.71 11.36 9.24 15.75 6.28 6.08 13.94 8.42 22.55 8.24 13.05-.28 22.33-6.28 27.75-18.15 3.41-7.48 4.56-15.44 4.72-23.55.18-9.18-.86-18.19-4.72-26.66-3.52-7.75-9.03-13.48-17.2-16.39-4.28-1.52-8.71-1.99-13.22-1.84-13.35.43-22.66 6.77-27.83 19.09-2.95 7.03-3.82 14.47-4.1 21.51z"/><path d="m473.97 573.07h28.01c.33 1.06.62 2.05.95 3.02 2.46 7.31 7.47 11.97 14.85 14.01 6.42 1.77 12.93 1.95 19.47.63 1.09-.22 2.17-.55 3.22-.9 7.3-2.43 10.22-8.21 9.57-15.49-.42-4.74-2.82-8.2-6.82-10.66-3.92-2.41-8.22-3.89-12.62-5.1-6.08-1.67-12.23-3.1-18.29-4.85-7.16-2.07-14.06-4.81-20.26-9.04-6.14-4.19-10.81-9.56-12.47-16.96-2.53-11.25-1.32-21.94 5.79-31.42 4.98-6.64 11.87-10.58 19.68-12.98 8.35-2.56 16.92-3.17 25.61-2.67 6.82.39 13.5 1.5 19.85 4.11 14.25 5.85 22.39 16.46 24.53 31.68.04.31 0 .63 0 1.12h-27.87c-.21-.75-.44-1.5-.63-2.25-1.74-7.03-6.19-11.4-13.17-13.12-5.19-1.28-10.45-1.39-15.67-.15-1.69.4-3.36 1.07-4.87 1.92-3.68 2.08-5.5 5.37-5.9 9.57-.59 6.25 2.23 10.38 7.74 12.97 5.17 2.43 10.65 3.87 16.17 5.17 8.95 2.11 17.84 4.45 26.09 8.61 3.19 1.61 6.31 3.48 9.18 5.61 7.01 5.21 11.03 12.24 12.05 20.97.84 7.18.38 14.19-2.37 20.94-3.56 8.72-9.98 14.69-18.33 18.74-5.59 2.71-11.53 4.3-17.65 5.12-10.05 1.34-20.08 1.28-30.04-.84-7.2-1.54-13.91-4.22-19.8-8.71-9.49-7.25-14.32-17.09-16.02-29.04z"/><path d="m345.88 573.07h28.03c.22.71.44 1.39.64 2.06 2.25 7.55 7.08 12.59 14.66 14.8 7.37 2.15 14.83 2.29 22.24.22 4.7-1.32 8.41-4 9.86-8.91 1.73-5.87 1.14-13.63-6.94-18.05-4.31-2.36-8.93-3.86-13.64-5.13-6.09-1.64-12.22-3.12-18.28-4.89-5.53-1.62-10.81-3.9-15.82-6.78-11.23-6.46-16.67-16.09-16.3-29.06.26-9.14 2.99-17.27 9.43-23.92 5.2-5.36 11.65-8.61 18.79-10.55 7.94-2.16 16.04-2.69 24.23-2.19 7.4.45 14.6 1.75 21.38 4.83 13.33 6.06 20.76 16.5 22.8 30.9.04.31 0 .63 0 .92-1.72.5-24.42.65-27.88.18-.27-1-.54-2.06-.86-3.12-1.83-6.15-5.8-10.21-12-11.92-6.13-1.69-12.34-1.9-18.42.09-7.91 2.58-9.92 9.09-8.66 15.73.47 2.45 1.84 4.38 3.8 5.92 2.49 1.95 5.32 3.29 8.31 4.15 5.9 1.71 11.85 3.24 17.79 4.83 8.82 2.37 17.46 5.18 25.28 10.05 6.71 4.17 12.11 9.56 14.38 17.31 4.7 16.09 1.29 36.82-20.38 46.49-6.5 2.9-13.33 4.43-20.37 5.07-8.79.81-17.56.59-26.23-1.29-8.17-1.77-15.67-4.96-22.03-10.52-6.86-6-10.95-13.62-12.95-22.43-.35-1.54-.57-3.11-.87-4.8z"/><path d="m1036.08 581.17h-46.79c-3.33 9.81-6.66 19.61-10 29.47h-26.96c-.05-.06-.11-.1-.15-.16-.04-.07-.09-.16-.07-.22 14.32-42.25 28.65-84.5 42.99-126.75.12-.37.34-.7.53-1.09h34.83c15.12 42.63 30.25 85.31 45.46 128.21h-29.31c-3.48-9.74-6.99-19.55-10.53-29.46zm-24.03-77.65c-5.52 18.06-11.08 36.24-16.65 54.45 3.9.47 32.66.31 34.35-.18-5.91-18.11-11.82-36.22-17.71-54.27z"/><path d="m328.28 610.61h-29.31c-3.48-9.73-6.99-19.55-10.51-29.41h-46.81c-3.32 9.77-6.64 19.57-9.99 29.43h-26.94c0-1.61 12.89-40.03 21.28-64.13 7.42-21.32 14.57-42.73 21.84-64.1h34.99c15.11 42.62 30.24 85.3 45.46 128.21zm-63.87-107.11c-5.52 18.06-11.07 36.23-16.68 54.56h34.48c-5.98-18.33-11.91-36.5-17.8-54.56z"/><path d="m868.6 522.02h-27.72c-.31-.92-.59-1.82-.91-2.71-3.13-8.48-8.89-14.05-17.86-16.05-5.63-1.25-11.28-1.3-16.85.24-7.78 2.15-13.23 7.18-16.99 14.17-3.31 6.15-4.93 12.81-5.6 19.68-.96 9.84-.57 19.62 2.21 29.19 1.79 6.15 4.53 11.81 9.19 16.31 6.88 6.64 15.31 8.57 24.57 7.57 10.51-1.13 17.38-6.98 21.19-16.66.32-.82.64-1.63 1.01-2.58h27.85c-.04.39-.04.76-.13 1.12-4.95 20.1-17.22 33.1-37.45 38.16-12.09 3.02-24.27 2.95-36.29-.25-17.74-4.73-29.61-16.1-36.24-33.05-2.96-7.57-4.45-15.47-4.94-23.58-.6-10.12.14-20.1 3-29.86 3.64-12.42 9.97-23.12 20.28-31.22 7.38-5.8 15.79-9.31 25.01-10.88 11.68-1.98 23.28-1.63 34.57 2.16 17.29 5.8 27.82 17.76 31.76 35.53.1.47.15.95.21 1.42.05.39.08.78.13 1.29z"/><path d="m1074.01 505.32c0-7.76 0-15.16 0-22.56 1.63-.51 102.65-.65 105.45-.12v22.63h-38.69v105.32h-27.69c-.34-5.03-.1-10.03-.15-15.02-.04-4.95 0-9.91 0-14.86v-75.37h-38.91z"/><path d="m926.23 610.62h-27.52v-128.13h27.29c.51 1.71.76 121.97.23 128.13z"/><path d="m1205.23 482.45h27.67v128.13h-27.67z"/><path d="m837.75 659.36v43.01h-8.9v-35.59c-3.33 11.52-6.8 23.54-10.3 35.65-2.66 0-5.16.03-7.67-.04-.28 0-.68-.57-.78-.95-1.18-4.31-2.35-8.62-3.47-12.94-1.84-7.15-3.63-14.3-5.45-21.45-.04-.14-.11-.28-.2-.49.15 11.97.3 23.83.44 35.79h-8.67v-42.99h5.79c2.36 0 4.72.02 7.08-.01.77-.01 1.09.22 1.3 1.01 2.58 9.79 5.22 19.57 7.83 29.36.04.15.08.29.19.65.17-.36.28-.54.33-.73 2.92-9.78 5.83-19.55 8.78-29.32.11-.38.64-.9.98-.9 4.2-.06 8.39-.04 12.72-.04z"/><path d="m1124.89 659.37v43h-8.87v-35.62c-3.33 11.51-6.81 23.57-10.3 35.63h-8.28c-3.14-12.04-6.29-24.11-9.3-35.61.14 11.45.3 23.49.45 35.59h-8.66v-42.91c.33-.03.68-.09 1.02-.09 3.92 0 7.84.02 11.76-.03.91-.01 1.22.33 1.44 1.16 2.7 9.97 5.45 19.92 8.13 29.72.52-1.98 1.04-4.24 1.71-6.44 2.4-7.9 4.83-15.78 7.29-23.65.1-.31.56-.72.86-.72 4.2-.05 8.39-.03 12.74-.03z"/><path d="m906.5 734.3h8.24v42.95c-.31.02-.66.06-1 .06-2.96 0-5.92-.02-8.88.02-.71 0-1.14-.15-1.51-.83-3.91-7.27-7.88-14.51-11.79-21.77-1.78-3.3-3.47-6.64-5.22-10v32.52h-8.37v-43.02h4.28c2.12 0 4.24.02 6.36-.01.67-.01 1.05.19 1.4.82 5.4 9.91 10.83 19.8 16.26 29.69.07.13.15.26.24.4v-30.84z"/><path d="m561.4 734.24c2.76 0 5.49.2 8.17-.06 2.58-.25 3.94.65 5.15 2.95 4.86 9.25 9.95 18.38 14.96 27.55.07.13.17.25.26.4v-30.73h8.27v42.96c-1.21 0-2.44 0-3.66 0-2.12 0-4.24-.03-6.36.02-.7.02-1.06-.23-1.39-.84-5.71-10.61-11.44-21.2-17.03-31.54v32.26h-8.38v-42.98z"/><path d="m900.17 702.38h-8.29v-43.02h6.97c.96 0 1.93.1 2.88-.02 1.33-.18 1.96.41 2.57 1.53 5.33 9.86 10.72 19.68 16.1 29.51.01.02.07 0 .03 0v-30.92h8.25v42.98c-2.5 0-5.03-.19-7.51.05-2.6.25-3.97-.61-5.2-3.01-4.78-9.33-9.85-18.52-14.8-27.77-.35-.65-.64-1.32-.99-2.04v32.7z"/><path d="m987.08 670.04v32.32h-8.45v-43h3.74c2.2 0 4.4.04 6.6-.02.88-.02 1.35.28 1.76 1.05 5.39 9.92 10.82 19.82 16.23 29.72.05.09.13.18.14.2v-30.85h8.31v42.93c-.34.02-.72.05-1.1.05-2.96 0-5.92-.04-8.88.03-.82.02-1.2-.3-1.56-.96-5.59-10.49-11.19-20.98-16.8-31.46-.03-.06-.1-.09 0 0z"/><path d="m963.31 747.32c-3 0-5.91.01-8.82-.02-.27 0-.69-.27-.77-.51-1.69-5-6.79-6.36-11.39-5.62-3.75.6-6.38 2.73-7.66 6.27-2.15 5.94-2.28 11.92.57 17.67 2.81 5.67 11 7.34 15.86 3.29 2.24-1.87 2.82-4.51 2.72-7.48h-9.23v-7.61h18.42v23.92h-6.87c-.23-1.19-.46-2.43-.73-3.84-2.12 2.4-4.72 3.67-7.7 4.22-4.71.86-9.32.62-13.67-1.51-4.7-2.3-7.7-6.14-9.21-11.09-2.3-7.53-2-14.94 1.94-21.87 3.57-6.29 9.33-9.13 16.42-9.49 4.01-.2 7.89.29 11.52 2.1 4.77 2.38 7.71 6.15 8.6 11.58z"/><path d="m609.14 777.09v-42.85h1.4 16.56c10.76 0 18.85 7.45 19.77 18.2.48 5.59-.32 10.93-3.36 15.74-3.35 5.3-8.25 8.47-14.45 8.83-6.6.38-13.24.09-19.92.09zm9.51-35.17v27.71c2.81 0 5.53.15 8.23-.04 3.44-.24 6.36-1.75 8.06-4.86 2.99-5.48 3.24-11.2.71-16.91-1.59-3.57-4.57-5.53-8.42-5.85-2.81-.24-5.66-.05-8.58-.05z"/><path d="m759.9 685.11v17.27h-9.14v-43.02h1.23c6.08 0 12.16-.06 18.24.02 4 .05 7.71 1.02 10.75 3.9 4.6 4.35 4.47 14.13-2.08 17.73-.21.11-.4.24-.67.41 3.96 2 4.78 5.59 4.96 9.46.18 3.82.22 7.64.32 11.57-2.55 0-5.35.02-8.14-.03-.24 0-.64-.47-.69-.76-.25-1.57-.48-3.16-.57-4.74-.12-2.07-.08-4.15-.15-6.23-.09-2.83-1.36-4.6-4.2-4.98-3.18-.43-6.43-.4-9.86-.57zm.12-17.96v10.37c3.49 0 6.89.22 10.26-.07 2.93-.25 4.45-2.34 4.41-5.18-.04-2.75-1.58-4.82-4.41-5.06-3.36-.28-6.77-.07-10.25-.07z"/><path d="m582.59 680.04c-.1 6.52-1.47 11.91-5.39 16.42-3.63 4.19-8.35 6.15-13.78 6.57-3.87.3-7.65-.13-11.22-1.74-5.24-2.37-8.54-6.47-10.2-11.88-1.91-6.26-1.85-12.53.7-18.61 2.41-5.76 6.69-9.63 12.76-11.18 7.24-1.84 14.14-1.15 20.11 3.82 3.89 3.24 5.8 7.63 6.62 12.53.26 1.57.32 3.17.41 4.08zm-9.7.24c-.13-1.03-.21-2.75-.57-4.42-.97-4.44-3.13-7.95-7.89-9.1-5.17-1.25-9.94.53-12.02 4.98-2.91 6.22-2.85 12.62.42 18.74 3.5 6.55 13.44 6.33 17.16 1.05 2.24-3.18 2.75-6.81 2.9-11.25z"/><path d="m1032.05 734.24c4.11 0 8.1-.02 12.1 0 3.2.02 6.41-.12 9.58.16 4.13.37 7.74 1.96 10.06 5.65 2.86 4.55 2.2 12.66-3.7 15.82-.17.09-.32.2-.57.36 3.98 2.09 4.78 5.73 4.94 9.64.16 3.78.21 7.56.31 11.43-2.52 0-5.28.02-8.03-.03-.27 0-.71-.4-.76-.67-.27-1.41-.52-2.83-.61-4.25-.13-1.95-.13-3.91-.14-5.87-.02-4.19-1.38-5.86-5.59-6.21-2.73-.23-5.5-.04-8.46-.04v17h-9.15v-43.01zm9.22 18.36c2.91 0 5.7.01 8.5-.01.55 0 1.11-.12 1.65-.23 1.61-.31 3.13-.86 3.89-2.46 1.23-2.59.95-7.14-3.52-7.8-3.43-.51-6.96-.4-10.52-.57v11.08z"/><path d="m610.29 658.76c5.2.01 9.94 1.36 13.89 4.9 3.07 2.75 4.94 6.23 5.89 10.2 1.51 6.37 1.2 12.63-1.82 18.53-3.46 6.78-9.23 10.11-16.73 10.64-3.13.22-6.22-.04-9.2-1.05-5.93-2.02-9.79-6.13-11.78-12.01-2.07-6.14-2.13-12.33.21-18.4 2.93-7.61 8.65-11.7 16.67-12.68.44-.05.87-.11 1.31-.13.52-.02 1.04 0 1.56 0zm-.2 36.65c4.21-.04 7.52-1.76 9.25-5.65 2.57-5.78 2.64-11.72.05-17.52-1.99-4.46-5.8-6.08-10.47-5.79-4.39.27-7.41 2.63-8.89 6.73-1.78 4.93-1.75 9.96-.05 14.9 1.64 4.76 5.4 7.38 10.1 7.32z"/><path d="m804.1 777.32c-2.52 0-5.19-.02-7.87.02-.67 0-.96-.27-1.03-.87-.21-1.74-.47-3.48-.58-5.22-.11-1.83.05-3.69-.13-5.51-.36-3.85-1.59-5.14-5.49-5.43-2.81-.21-5.65-.04-8.57-.04v16.98h-9.17v-42.94c.49-.02.92-.06 1.35-.06 6.24 0 12.48-.08 18.72.02 4.34.07 8.27 1.34 11.11 4.9 3.62 4.54 3.15 13.49-3.21 16.76-.13.07-.24.17-.44.32 3.88 2.07 4.78 5.6 4.92 9.5.14 3.82.25 7.64.38 11.56zm-23.57-35.8v11.2c3.51-.12 6.95-.07 10.34-.42 2.84-.28 4.29-2.25 4.33-5.11.04-2.63-1.42-4.76-4.09-5.09-3.5-.43-7.05-.41-10.59-.58z"/><path d="m1217.17 702.44c-3.82 0-7.37.02-10.92-.03-.32 0-.72-.42-.94-.73-3.94-5.67-7.85-11.35-11.78-17.03-.25-.36-.52-.7-.85-1.12-1.39 1.3-2.78 2.54-4.09 3.86-.28.28-.38.85-.38 1.29-.03 4.12-.02 8.24-.02 12.36v1.36h-9.14v-42.94h9.09v18.94c.47-.47.74-.71.98-.98 5.18-5.8 10.35-11.61 15.54-17.4.27-.3.72-.61 1.08-.62 3.47-.05 6.94-.03 10.59.24-5.66 5.86-11.32 11.73-17.07 17.68 5.92 8.3 11.82 16.6 17.9 25.13z"/><path d="m970.11 659.46v7.64h-21.33v9.02h20.31v7.8h-20.32v10.82h22.61c-.38 2.62-.74 5.09-1.11 7.62h-30.63v-42.91h30.48z"/><path d="m742.45 702.39h-30.68v-42.92h30.44v7.64h-21.21v9.05h20.35v7.76h-20.36v10.78h22.59c-.39 2.68-.76 5.2-1.12 7.69z"/><path d="m436.3 249.15c-1.61-2.75-3.25-5.49-4.84-8.26-1.28-2.24-2.56-4.48-3.74-6.77-7.19-13.89-14.37-27.79-21.55-41.7-.18-.35-.3-.72-.5-1.19 6.1-3.13 12.2-6.19 18.42-9.23 13.15 26.93 26.29 53.85 39.44 80.78-.4.24-.78.52-1.19.72-6.42 3.16-12.84 6.36-19.18 9.72-1.14.6-1.89.5-2.87-.12-16.4-10.2-33.02-19.98-49.84-29.48-5.96-3.33-11.77-6.88-17.72-10.26-.18-.1-.39-.18-.69-.17 6.11 9.77 12 19.6 17.79 29.56 5.73 9.96 11.45 19.92 17.18 29.88-.91.93-14.26 8.88-16.41 9.76-15.44-25.66-30.89-51.31-46.33-76.97 8.15-4.93 16.39-9.73 24.68-14.41 22.93 11.96 45.51 24.25 67.34 38.14z"/><path d="m799.1 145.71c-.44-3.16-.9-6.32-1.31-9.48-.33-2.56-.65-5.12-.87-7.68-1.35-15.59-2.69-31.17-4.03-46.76-.03-.39 0-.78-.01-1.29 6.66-.55 13.29-1.04 20.04-1.47 1.91 29.9 3.82 59.8 5.73 89.71-.45.07-.9.18-1.35.21-6.97.46-13.94.96-20.9 1.63-1.25.12-1.88-.26-2.54-1.21-11.01-15.7-22.36-31.12-33.99-46.37-4.13-5.37-8.04-10.88-12.14-16.29-.13-.17-.29-.31-.56-.43 1.9 11.36 3.58 22.7 5.12 34.12 1.48 11.39 2.97 22.79 4.45 34.18-1.16.51-16.05 2.67-18.29 2.65-4.44-29.61-8.89-59.23-13.33-88.84 9.12-1.37 18.22-2.61 27.43-3.74 16.22 19.88 32.03 39.91 46.56 61.08z"/><path d="m1220.1 204.24c.95-3.04 1.87-6.1 2.85-9.13.79-2.45 1.59-4.91 2.49-7.32 5.43-14.67 10.87-29.34 16.32-44.01.14-.36.33-.71.54-1.17 6.35 2.38 12.64 4.8 19.03 7.34-11.05 27.85-22.1 55.71-33.15 83.56-.45-.13-.9-.23-1.33-.4-6.6-2.6-13.22-5.17-19.88-7.56-1.2-.43-1.61-1.05-1.81-2.19-3.37-18.94-7.16-37.76-11.27-56.55-1.48-6.63-2.7-13.29-4.13-19.94-.04-.21-.13-.41-.33-.63-3.13 11.08-6.44 22.06-9.91 33.04-3.52 10.94-7.03 21.88-10.55 32.81-1.27-.04-15.79-4.46-17.82-5.44 8.61-28.68 17.21-57.37 25.82-86.05 8.9 2.67 17.73 5.45 26.63 8.38 6.33 24.95 12.23 49.86 16.49 75.26z"/><path d="m925.52 168.07c-7.28-.36-14.29-.62-21.5-.81-2.37-6.9-4.82-13.84-7.34-20.81-11.71-.14-23.39-.14-35.1 0-2.36 6.9-4.68 13.83-6.96 20.82-6.66.17-13.21.41-19.76.71 3.73-15.42 9.06-30.62 14.25-45.59 5.28-15.16 10.64-30.29 16.19-45.36 9.37-.14 18.75-.13 28.12 0 11.56 30.07 22.25 60.37 32.1 91.04zm-46.88-76.32c-4.34 12.77-8.57 25.55-12.7 38.39 8.87-.12 17.51-.12 26.29 0-4.42-12.84-8.94-25.63-13.59-38.39z"/><path d="m1326.56 279.37c-6.61-3.55-13-6.88-19.6-10.23.75-7.28 1.45-14.64 2.1-22.04-10.77-5.26-21.57-10.38-32.46-15.37-5.13 5.21-10.24 10.47-15.32 15.79-6.22-2.75-12.36-5.38-18.52-7.94 10.04-12.33 21.45-23.75 32.63-35.03 11.36-11.41 22.77-22.75 34.34-33.95 8.73 3.97 17.41 8.08 26.01 12.32-2.15 32.26-5.19 64.36-9.16 96.45zm-10.81-89.64c-9.47 9.64-18.85 19.35-28.16 29.15 8.25 3.77 16.23 7.55 24.31 11.51 1.4-13.55 2.68-27.09 3.85-40.66z"/><path d="m923.05 94.02c.23-5.44.46-10.63.68-15.82 28.06.27 56.76 2.59 84.47 7.02-.65 5.19-1.3 10.38-1.98 15.76-10.13-1.29-20.3-2.41-30.46-3.36l-7.01 73.59c-6.81-.65-13.45-1.21-20.26-1.71.01-3.54.44-7.03.67-10.53.22-3.47.5-6.94.76-10.4.26-3.52.52-7.05.78-10.57s.52-7.05.78-10.57.52-7.05.78-10.57c.25-3.47.51-6.94.76-10.4.26-3.51.52-7.02.78-10.65-10.23-.77-20.49-1.36-30.74-1.79z"/><path d="m446.66 189.13c-2.31-4.93-4.51-9.64-6.71-14.35 25.38-13.03 52.47-24.35 79.55-33.35 1.81 4.9 3.63 9.82 5.51 14.9-9.72 3.58-19.4 7.32-28.99 11.23 9.25 22.84 18.49 45.69 27.74 68.53-6.45 2.61-12.7 5.22-19.09 7.98-1.63-3.14-2.86-6.44-4.27-9.64-1.4-3.18-2.76-6.38-4.13-9.58-1.4-3.25-2.79-6.49-4.19-9.74s-2.79-6.49-4.19-9.74-2.79-6.49-4.19-9.74c-1.38-3.19-2.75-6.39-4.13-9.58-1.39-3.23-2.78-6.46-4.22-9.81-9.62 4.13-19.19 8.43-28.67 12.88z"/><path d="m376.87 311.02c-5.96 3.73-11.79 7.47-17.7 11.35-16.46-25.06-32.92-50.11-49.38-75.17 6.38-4.19 12.78-8.29 19.22-12.32 16.85 24.65 32.86 50.33 47.86 76.15z"/><path d="m1409.47 306.17c-4.24 6.46-6.36 9.69-10.61 16.15-19.04-12.33-38.36-24.06-58.09-35.26 14.6-26.14 29.2-52.28 43.81-78.42 7.9 4.42 11.83 6.67 19.66 11.27-11.1 20.63-23.38 40.71-35.31 60.86 13.77 7.97 27.53 16.22 40.54 25.4z"/><path d="m1031 179.16c-6.69-1.09-13.3-2.09-20.02-3.03 4.18-29.69 8.36-59.37 12.54-89.06 7.27 1.02 14.5 2.12 21.74 3.29-3.63 29.64-8.53 59.49-14.25 88.8z"/><path d="m627.37 107.21c9.55-2.41 19.15-4.69 28.79-6.75 7.63-1.64 15.25-3.52 22.96-4.42 8.4-1.58 20.1.99 26.15 7.38 9.13 10.35 8 25.78-2.81 34.56-.35.25-.65.55-1.16.99 9.91 2.71 13 10.04 14.76 18.15 1.7 7.83 3.16 15.72 4.76 23.79-5.53.94-11.54 2.05-17.58 3.08-.58.1-1.7-.54-1.92-1.08-1.14-2.82-2.26-5.67-3.04-8.6-1.06-4.01-1.86-8.09-2.66-12.16-1.72-8.71-5.47-11.64-15.14-10.41-6.28.8-12.46 2.53-19.14 4.05 1.32 5.8 2.64 11.63 3.97 17.46 1.33 5.85 2.66 11.71 4.02 17.7-6.73 1.53-13.2 3.07-19.84 4.73-7.37-29.49-14.75-58.98-22.12-88.48zm30.53 32.74c6.67-1.51 13.1-2.87 19.51-4.24 1.27-.27 2.49-.78 3.71-1.25 3.59-1.4 6.86-3.22 7.98-6.89 1.8-5.94-.61-15.35-11.41-14.62-8.3.56-16.55 2.56-24.99 4.1 1.81 7.96 3.47 15.28 5.2 22.91z"/><path d="m1113.69 103.45c11.35 2.53 22.07 8.23 29.2 17.6 5.49 7.29 7.76 15.31 7.65 23.7-.05 13.17-4.81 25.97-14.09 35.42-10.2 11.36-26.22 14.34-40.68 12.08-6.66-1.1-13.01-3.06-18.85-6.43-10.92-6.13-18.42-16.72-20.38-29.1-.91-15.5.46-22.98 7.33-36.91 8.98-14.58 27.08-19.56 43.17-17.61 1.02.12 2.05.24 3.07.43 1.2.23 2.39.54 3.58.81zm-17.39 72.93c8.99 2 16.83.35 22.5-6.42 8.29-13.12 9.94-19.2 8.94-34.7-2.13-9.99-11.1-15.78-20.71-17.18-10.05-1.73-17.91 1.56-22.93 9.08-5.67 7.78-8.22 20.43-6.31 29.83 1.42 9.86 8.82 17.39 18.51 19.39z"/><path d="m630.71 200.13c-21.89 6.12-43.52 12.84-65.03 20.21-9.95-28.37-19.9-56.75-29.85-85.12 23.35-8.03 46.87-15.35 70.66-21.98 1.38 5.07 2.76 10.15 4.22 15.49-16.3 4.55-32.48 9.39-48.61 14.54 2 6.11 3.91 11.97 5.9 18.08 15.18-4.85 30.41-9.43 45.75-13.74 1.46 5.31 2.85 10.38 4.32 15.73-15.1 4.24-30.09 8.74-45.02 13.52 2.38 7.28 4.66 14.28 7.04 21.55 16.19-5.17 32.45-10 48.83-14.52.61 5.67 1.2 11.01 1.79 16.25z"/><path d="m1251.76 676.11v7.8h-20.41v10.86h22.62c-.34 2.41-.67 4.69-.98 6.98-.11.85-.73.68-1.26.68-7.4 0-14.8 0-22.19 0-2.39 0-4.79 0-7.28 0v-43h30.42v7.66h-21.33v9h20.4z"/><path d="m1240.66 746.06h-9.42c-.09-.31-.2-.65-.29-.98-.54-1.89-1.67-3.27-3.56-3.9-2.38-.79-4.78-.9-7.14.11-1.49.64-2.27 1.81-2.41 3.43-.15 1.78.43 3.3 2.08 3.95 2.47.98 5.04 1.75 7.6 2.46 3.32.93 6.57 1.93 9.48 3.87 3.79 2.54 5.09 6.2 4.79 10.55-.4 5.73-3.59 9.32-8.9 11.09-5.17 1.72-10.46 1.79-15.68.3-6.09-1.75-9.56-5.9-10.51-12.26h9.51c.57 2.5 1.95 4.46 4.42 5.36 2.98 1.08 6.06 1.22 9-.08 3.27-1.45 3.64-6.24.56-8.15-1.66-1.03-3.63-1.59-5.5-2.23-3.24-1.11-6.6-1.89-9.74-3.21-4.71-1.98-7.03-5.65-6.7-10.9.29-4.77 2.48-8.35 6.87-10.08 7.24-2.85 14.44-2.89 21.04 1.87 2.87 2.07 4.14 5.17 4.53 8.81z"/><path d="m1162.7 746.08h-9.38c-1.62-5.01-6.98-7.12-11.47-4.56-2.6 1.48-2.81 5.58-.16 6.93 2.17 1.11 4.62 1.65 6.94 2.46 3.04 1.07 6.19 1.9 9.07 3.3 4.68 2.27 6.52 6.34 6.14 11.46-.37 4.98-2.91 8.58-7.46 10.39-6.76 2.69-13.66 2.8-20.31-.45-4.42-2.16-6.62-6.02-7.29-10.94h9.42c1.99 5.37 7.87 7.8 13.18 5.43 1.86-.83 2.83-2.24 2.88-4.29.06-2.34-1.11-3.94-3.17-4.73-2.34-.9-4.81-1.43-7.18-2.26-2.78-.97-5.63-1.83-8.23-3.17-4.29-2.2-5.83-6.04-5.38-10.72.5-5.16 3.33-8.59 8.19-10.14 6.19-1.97 12.38-1.96 18.17 1.34 3.75 2.13 5.65 5.6 6.05 9.94z"/><path d="m761.91 750.99v7.67h-20.36v10.86h22.58c-.4 2.69-.77 5.2-1.14 7.74h-30.59v-42.92h30.46v7.55h-21.33v9.1z"/><path d="m1131.27 702.44c1.16-3.44 2.27-6.76 3.4-10.07 2.09-6.15 4.18-12.3 6.27-18.45 1.52-4.49 3.06-8.98 4.56-13.48.25-.74.56-1.11 1.42-1.1 3.28.05 6.56.03 9.83 0 .63 0 1.01.13 1.24.8 4.93 13.98 9.88 27.95 14.82 41.92.02.07 0 .15-.02.36-3.09 0-6.19.02-9.29-.04-.27 0-.64-.5-.76-.84-1.02-2.72-2.02-5.46-2.96-8.21-.21-.63-.52-.77-1.12-.76-4.88.02-9.75.01-14.76.01-.81 2.39-1.62 4.79-2.42 7.19q-.89 2.65-3.72 2.65c-2.11 0-4.23 0-6.47 0zm20.21-35.74c-1.88 6.15-3.69 12.05-5.51 18h11.39c-1.96-6-3.88-11.87-5.88-18z"/><path d="m844.11 702.44c1.24-3.71 2.41-7.23 3.6-10.73 2.93-8.64 5.88-17.28 8.82-25.93.63-1.85 1.29-3.69 1.88-5.55.2-.63.49-.89 1.18-.88 3.32.03 6.64.03 9.96 0 .71 0 1.09.23 1.32.9 3.04 8.65 6.09 17.29 9.15 25.93 1.66 4.69 3.34 9.38 5 14.08.24.67.43 1.35.7 2.18-3.23 0-6.34.02-9.44-.03-.24 0-.59-.45-.7-.76-1.09-2.99-2.15-6-3.23-9.04-5.05 0-10.05-.02-15.04.04-.3 0-.74.5-.87.86-.95 2.67-1.86 5.35-2.72 8.04-.22.69-.51.93-1.25.92-2.71-.04-5.43-.02-8.34-.02zm26.09-17.71c-1.98-6.08-3.94-12.07-5.89-18.05-1.83 5.98-3.65 11.96-5.52 18.05h11.4z"/><path d="m464.98 702.44c-3.21 0-6.28.03-9.36-.04-.3 0-.71-.53-.85-.9-.94-2.54-1.82-5.1-2.72-7.66-.14-.41-.32-.8-.5-1.24-4.99 0-9.94-.01-14.9.03-.32 0-.79.45-.91.79-.96 2.66-1.88 5.34-2.73 8.04-.23.73-.52 1.01-1.31 1-2.71-.05-5.43-.02-8.29-.02.17-.6.3-1.12.47-1.62 4.34-12.79 8.69-25.58 13.04-38.37q1.05-3.08 4.27-3.09c2.52 0 5.04.02 7.56-.01.75-.01 1.11.21 1.37.96 3.59 10.23 7.22 20.44 10.85 30.65 1.21 3.42 2.42 6.83 3.63 10.25.13.37.23.74.39 1.23zm-15.53-17.71c-1.98-6.07-3.92-12.01-5.88-18.04-1.84 6.02-3.66 11.98-5.51 18.04h11.4z"/><path d="m1311.8 659.42h9.41c.02.47.07.89.07 1.31 0 8.2.05 16.39-.02 24.59-.03 3.32-.53 6.58-2.04 9.63-1.68 3.4-4.31 5.74-7.88 6.9-5.34 1.72-10.77 1.75-16.13.1-5.34-1.65-8.38-5.5-9.53-10.85-.43-2.01-.59-4.11-.61-6.17-.07-8-.03-15.99-.03-23.99v-1.49h9.36v1.54c0 8.04-.01 16.07 0 24.11 0 2.17.26 4.31 1.26 6.28 1.81 3.54 5.96 5.11 10.29 3.98 3.5-.91 4.97-3.48 5.59-6.75.19-1.01.25-2.06.25-3.1.02-8.24.01-16.47.01-24.71 0-.43 0-.86 0-1.39z"/><path d="m513.66 777.32c1.38-4.04 2.69-7.88 4-11.73 3.44-10.11 6.88-20.22 10.29-30.34.26-.77.61-1.04 1.44-1.03 3.24.05 6.48.04 9.72 0 .76 0 1.12.23 1.38.96 3.89 11.05 7.81 22.09 11.72 33.13 1.05 2.96 2.08 5.92 3.17 9.01-3.2 0-6.27.02-9.34-.03-.29 0-.71-.42-.83-.74-1-2.69-1.99-5.38-2.89-8.11-.3-.9-.75-1.11-1.64-1.1-4.4.05-8.8.05-13.19 0-.94-.01-1.31.34-1.57 1.18-.82 2.62-1.74 5.22-2.58 7.84-.23.7-.55 1.01-1.35.99-2.71-.05-5.43-.02-8.33-.02zm20.24-35.81c-1.85 6.05-3.68 12.04-5.52 18.07h11.41c-1.98-6.08-3.93-12.05-5.89-18.07z"/><path d="m1025.94 777.32c-3.16 0-6.16.02-9.16-.03-.33 0-.82-.41-.94-.74-1.03-2.72-2.01-5.46-2.95-8.21-.24-.72-.55-1-1.34-.99-4.56.04-9.11.04-13.67 0-.74 0-1.03.25-1.25.93-.89 2.73-1.82 5.44-2.79 8.14-.13.36-.56.86-.86.86-2.83.07-5.67.04-8.66.04.56-1.73 1.08-3.35 1.62-4.95 3.56-10.49 7.14-20.98 10.71-31.46.65-1.92 1.33-3.84 1.95-5.78.2-.62.45-.91 1.16-.9 3.36.04 6.72.07 10.07-.02 1.06-.03 1.16.68 1.38 1.3 2.08 5.86 4.13 11.72 6.21 17.58 2.67 7.55 5.37 15.09 8.05 22.64.17.48.3.98.48 1.59zm-21.41-35.8c-1.86 6.09-3.68 12.04-5.52 18.05h11.42c-1.98-6.05-3.92-11.97-5.9-18.05z"/><path d="m680.47 686.48v15.9h-9.39v-42.94c.39-.02.74-.07 1.09-.07 5.76 0 11.52-.02 17.28 0 2.58.01 5.09.52 7.44 1.6 5.2 2.39 7.99 7.52 7.31 13.3-.77 6.61-4.88 10.84-11.69 11.81-2.36.34-4.77.3-7.16.38-1.55.05-3.11.01-4.87.01zm.06-7.79c3.21 0 6.3.22 9.35-.06s4.77-2.45 4.88-5.42c.11-3.04-1.51-5.55-4.43-5.94-3.21-.43-6.49-.33-9.8-.46z"/><path d="m1340.96 686.36v16.01h-9.27v-42.94c.41-.02.83-.07 1.25-.07 5.68 0 11.36-.08 17.03.02 4.2.08 8.12 1.1 11.25 4.21 2.95 2.93 3.87 6.53 3.56 10.52-.64 8.27-7.03 11.86-13.81 12.22-3.26.17-6.54.03-10.02.03zm.06-7.67c3.2 0 6.32.22 9.4-.06 3.17-.29 4.85-2.46 4.93-5.61.08-3.02-1.63-5.45-4.74-5.79-3.14-.34-6.35-.08-9.6-.08v11.53z"/><path d="m671.46 734.24h4.66c5.27.04 10.56-.17 15.81.19 4.93.34 9.11 2.5 11.36 7.21 2.92 6.13 1.61 16.24-8.57 18.85-1.8.46-3.69.64-5.55.72-2.75.12-5.51.03-8.41.03v16.01h-9.3v-43zm9.3 19.44h7.86c.56 0 1.12-.05 1.66-.17 1.82-.39 3.4-1.15 4.23-2.96 1.9-4.14-.61-8.44-5.15-8.73-2.07-.13-4.15-.1-6.22-.14-.78-.01-1.56 0-2.39 0v12z"/><path d="m849.8 747.5h-9.25c-1-3.6-3.34-5.83-7.07-6.38-5.25-.78-9.24 1.44-11.05 6.44-2.25 6.23-2.2 12.5 1.06 18.4 2.69 4.86 9.79 6.16 14.05 2.66 1.14-.94 1.79-2.49 2.68-3.74.23-.32.53-.83.81-.83 2.95-.06 5.9-.04 8.98-.04-.97 4.39-2.97 7.92-6.55 10.48-4.14 2.96-8.86 3.64-13.78 3.38-3.86-.21-7.46-1.26-10.61-3.61-3.54-2.64-5.7-6.21-6.77-10.43-1.83-7.26-1.52-14.36 2.3-20.96 3.51-6.06 9.02-8.9 15.92-9.23 3.97-.19 7.81.28 11.36 2.18 4.35 2.33 6.93 5.99 7.91 10.8.04.19.06.39.08.59 0 .07-.04.15-.08.29z"/><path d="m403.81 667.13h-13.07v-7.68h35.39v7.66h-12.87v35.26h-9.45z"/><path d="m462.14 667.19v-7.73h35.35v7.68h-12.94v35.23h-9.32v-35.18z"/><path d="m515.52 667.13h-12.94v-7.68h35.22v7.67h-12.82v35.25h-9.46z"/><path d="m1070.16 741.94v-7.6h35.4v7.53h-12.83v35.35h-9.51v-35.28h-13.05z"/><path d="m1189.65 741.86v35.37h-9.34v-35.29h-13.01v-7.59h35.3v7.51z"/><path d="m1035.49 667.17h-13.04v-7.73h35.36v7.67h-12.96v35.25h-9.37v-35.19z"/><path d="m1111.97 734.29h9.29v42.96h-9.29z"/><path d="m721.4 777.28h-9.26v-42.94h9.26z"/><path d="m857.8 734.31h9.22v42.92h-9.22z"/><path d="m632.98 709.76c2.61-5.97 4.24-11.97 4.63-18.3h9.29c-.13.98-.22 1.91-.38 2.83-.94 5.28-2.61 10.28-5.87 14.62-.32.43-1 .79-1.53.82-1.95.1-3.91.04-6.14.04z"/><path d="m1276.96 682.5v7.72h-17.41v-7.72z"/><path d="m944.71 835.09h94.6c-5.67 3.75-35.05 23.09-58.95 35.65-3.31 1.74-7.69 3.9-16.45 8.23-21.17 10.45-23.04 10.85-25.36 10.97-7.05.37-14.29-3.64-28.79-11.65-5.38-2.97-8-4.86-8.23-7.54-.22-2.64 1.99-4.71 10.97-11.65 10.48-8.11 19.19-14.4 19.19-14.4 3.96-2.86 8.32-6.06 13.02-9.6z"/><path d="m806.92 927.64c19.42-11.43 38.85-22.85 58.27-34.28.78-.3 1.96-.64 3.43-.69 1.81-.06 3.25.36 4.11.69 6.4 3.88 12.8 7.77 19.19 11.65.24.22 1.22 1.17 1.37 2.74.13 1.41-.49 2.44-.69 2.74-21.25 13.02-42.5 26.05-63.75 39.07-.96.64-3.09 1.84-5.48 1.37-1.95-.38-3.23-1.7-4.11-2.74-4.7-5.54-11.56-19.02-12.34-20.57z"/><path d="m708.89 972.2c4.64-4.63 18.89-18.67 40.45-31.53 9.39-5.61 23.2-12.79 39.76-11.65 6.94.48 10.33 2.14 12.34 3.43 9.41 6.04 14.03 20.23 11.65 30.16-4.35 18.15-33.05 26.13-74.72 37.7-20.7 5.75-31.75 7.05-52.1 15.77-13.82 5.92-24.57 12.12-31.53 16.45 20.81-25.83 39.68-45.88 54.16-60.33z"/><path d="m1048.22 971.51c-.13.14-.27.28-.41.44-2.36 2.59-6.62 8.07-7.81 16.01-1.4 9.31 1.21 23.29 13.02 29.48 9.68 5.07 22.7 3.44 30.16-4.8 5.47-6.04 7.15-14.79 5.48-21.25-1.09-4.24-3.43-8.23-3.43-8.23-3.06-5.22-5.51-6.06-5.48-8.91.03-3.47 3.71-7.34 7.54-7.54 3.61-.19 6.29 3.07 8.23 5.48 9.3 11.56 7.7 26.74 7.54 28.11-.42 3.48-1.79 13.75-10.28 22.62-10.42 10.88-23.81 11.58-26.74 11.65-20.36.54-32.37-15.46-33.59-17.14-1.09-1.51-8.03-11.33-7.54-22.62.16-3.74 1.23-9.73 4.11-15.77.08-.17.58-.63.69-1.37.26-1.76-1.64-3.52-3.43-4.8l-237.88-137.1h29.99l229.82 135.73z"/><path d="m1594.82 529.26 96.36-48.9-96.36 69.73z"/><path d="m82.51 467.36 89.87 52.06-9.99 30.67-95.57-55.63 5.7.71-3.56-5.7 6.42.71-5-4.99 7.14 1.42-4.28-6.41 7.84 1.42-4.28-4.99 7.14.71-5-5.7 7.14 1.42z"/></g></svg>